<?xml version="1.0" ?><!DOCTYPE svg  PUBLIC '-//W3C//DTD SVG 1.1//EN'  'http://www.w3.org/Graphics/SVG/1.1/DTD/svg11.dtd'><svg enable-background="new 0 0 852.1 864.1" id="Слой_1" version="1.1" viewBox="0 0 852.1 864.1" xml:space="preserve" xmlns="http://www.w3.org/2000/svg" xmlns:xlink="http://www.w3.org/1999/xlink"><g><g><linearGradient gradientTransform="matrix(-0.7156 0.6985 0.6985 0.7156 451.5627 -183.4725)" gradientUnits="userSpaceOnUse" id="SVGID_1_" x1="627.3539" x2="812.611" y1="140.7517" y2="426.2657"><stop offset="0" style="stop-color:#FFFFFF"/><stop offset="1" style="stop-color:#FBB03B"/></linearGradient><path d="M147.4,727.9     c17.8,18.2,47,18.6,65.2,0.8l29.7-29c18.2-17.8,18.6-47,0.8-65.2L139.8,528.8l-68.6,55.1c-18.2,17.8-12.7,53,5.1,71.2     L147.4,727.9z M121.6,649.9c-36.3-34.3-6.4-58.1-6.4-58.1c13.6-13.3,39.5-9.7,57.2,8.5l36,36.9c17.8,18.2,20.8,44.1,6.8,57.8l0,0     c-14,13.6-39.8,10-57.6-8.2L121.6,649.9z" fill="url(#SVGID_1_)" stroke="#4D4E4F" stroke-miterlimit="10" stroke-width="6"/><linearGradient gradientTransform="matrix(-0.7156 0.6985 0.6985 0.7156 451.5627 -183.4725)" gradientUnits="userSpaceOnUse" id="SVGID_2_" x1="353.014" x2="346.2213" y1="168.264" y2="493.3345"><stop offset="0" style="stop-color:#FFFFFF"/><stop offset="1" style="stop-color:#B3B3B3"/></linearGradient><polygon fill="url(#SVGID_2_)" points="140.2,528.7 707.4,44.6      782.7,121.7 778.9,125.4 785.3,152.2 759.9,144.9 766.2,170 741,162.9 747.4,188.2 722.3,181.1 728.7,206.4 703.5,199.3      710,224.6 684.9,217.6 691.3,242.9 666.2,235.8 672.6,261.1 647.5,254.1 653.9,279.4 628.8,272.3 635.2,297.6 610.1,290.5      616.5,315.8 591.4,308.8 597.9,334.1 572.7,327 579.2,352.3 554,345.3 560.5,370.6 535.3,363.5 541.8,388.8 516.6,381.8      523.1,407.1 498,400 504.4,425.3 479.3,418.2 485.7,443.5 460.6,436.5 467,461.8 441.9,454.7 448.3,480 423.2,473 429.6,498.3      404.5,491.2 411,516.5 385.8,509.5 392.3,534.8 367.1,527.7 373.6,553 348.4,545.9 354.9,571.3 329.7,564.2 336.2,589.5      311,582.4 317.5,607.7 292.4,600.7 298.8,626 273.7,618.9 280.7,644.8 254,637.7 250.2,641.4    " stroke="#4D4E4F" stroke-miterlimit="10" stroke-width="6"/></g><rect fill="none" height="162" width="594" x="197.3" y="753.1"/><text fill="#4D4E4F" font-family="'MyriadPro-Regular'" font-size="100" transform="matrix(1 0 0 1 413.5551 824.1451)"/></g></svg>